<?xml version="1.0" standalone="no"?>
<!DOCTYPE svg PUBLIC "-//W3C//DTD SVG 20010904//EN"
 "http://www.w3.org/TR/2001/REC-SVG-20010904/DTD/svg10.dtd">
<svg version="1.0" xmlns="http://www.w3.org/2000/svg"
 width="980.000000pt" height="980.000000pt" viewBox="0 0 980.000000 980.000000"
 preserveAspectRatio="xMidYMid meet">
<metadata>
Created by potrace 1.14, written by Peter Selinger 2001-2017
</metadata>
<g transform="translate(0.000000,980.000000) scale(0.100000,-0.100000)"
fill="#000000" stroke="none">
<path d="M0 4900 l0 -4900 4900 0 4900 0 0 4900 0 4900 -4900 0 -4900 0 0
-4900z m5380 3870 c159 -15 371 -54 487 -91 124 -40 219 -87 308 -154 l71 -52
29 24 c91 74 220 103 309 69 148 -56 226 -191 226 -386 0 -107 -21 -208 -104
-490 -173 -597 -231 -799 -310 -1089 -47 -173 -86 -321 -86 -329 0 -8 31 -43
68 -77 77 -72 148 -171 198 -279 68 -149 89 -277 159 -962 15 -148 43 -350 70
-495 60 -325 72 -461 57 -638 -17 -196 -37 -264 -142 -473 -49 -100 -90 -183
-90 -186 0 -3 30 -2 68 2 37 4 220 23 407 42 187 19 452 46 588 60 204 21 254
23 285 13 91 -29 164 -97 186 -174 18 -63 50 -387 42 -420 -4 -14 0 -46 8 -73
9 -26 24 -136 35 -245 l20 -199 106 -141 106 -142 -33 -7 c-18 -4 -278 -32
-578 -63 -300 -31 -673 -69 -830 -86 -319 -33 -385 -40 -1345 -139 -932 -96
-1156 -119 -1255 -130 -47 -5 -526 -55 -1065 -111 -539 -55 -981 -102 -983
-103 -1 -2 6 -78 16 -169 10 -92 15 -167 12 -167 -20 0 -566 253 -573 265 -6
11 -27 15 -80 15 -40 0 -90 5 -112 11 -80 22 -154 98 -175 179 -11 43 -100
928 -100 995 0 103 50 184 143 231 56 29 110 36 697 94 179 18 330 34 336 35
6 2 21 70 34 152 54 358 78 442 140 498 30 28 44 57 69 150 12 44 37 114 56
155 18 41 43 122 55 180 12 58 35 161 51 230 17 69 54 271 84 450 91 540 181
861 275 980 29 37 135 123 162 132 8 3 6 15 -10 39 -24 39 -144 332 -174 424
-29 88 -91 188 -169 269 l-68 71 -94 -93 -94 -94 -6 69 c-10 100 -8 181 4 249
26 143 244 592 404 834 135 204 392 413 695 564 264 131 415 167 559 131 125
-30 560 -264 699 -375 71 -57 103 -115 172 -315 74 -212 214 -483 338 -651 32
-43 73 -101 92 -127 29 -41 36 -46 42 -30 8 17 66 234 219 812 38 145 68 265
66 267 -7 7 -92 -27 -129 -51 -75 -50 -172 -56 -261 -17 -23 10 -83 48 -132
84 -445 325 -1009 507 -1570 508 -307 0 -605 -49 -955 -158 -52 -17 -96 -29
-98 -27 -9 8 159 223 205 263 263 227 699 384 1228 442 274 30 717 39 935 20z"/>
<path d="M4767 8700 c-512 -31 -900 -115 -1203 -260 -124 -60 -264 -153 -324
-215 -45 -47 -45 -48 -15 -40 458 111 867 137 1255 79 206 -31 436 -82 535
-119 191 -71 511 -248 678 -374 66 -50 142 -81 197 -81 26 0 65 12 108 34 60
30 261 100 268 93 2 -2 -53 -214 -122 -472 -68 -259 -149 -564 -180 -680 -30
-115 -57 -216 -60 -224 -5 -17 -262 340 -347 484 -101 170 -193 364 -236 500
-23 72 -56 157 -75 190 -31 57 -40 64 -189 157 -268 168 -471 266 -593 289
-92 17 -250 -28 -459 -133 -274 -136 -520 -334 -658 -526 -65 -92 -236 -403
-306 -558 -70 -157 -93 -228 -99 -314 l-5 -74 59 52 c32 29 62 52 67 52 17 0
149 -134 192 -195 57 -81 74 -115 151 -317 73 -191 132 -316 169 -360 14 -16
25 -33 25 -36 0 -4 -22 -19 -49 -35 -72 -40 -147 -102 -181 -148 -85 -118
-179 -471 -254 -949 -19 -124 -53 -306 -75 -405 -23 -99 -53 -232 -67 -295
-14 -63 -35 -133 -46 -154 -21 -43 -35 -83 -68 -196 -16 -55 -34 -89 -65 -125
-23 -27 -47 -60 -53 -71 -17 -32 -58 -245 -84 -437 -20 -151 -25 -168 -43
-172 -11 -2 -243 -26 -516 -54 -274 -28 -508 -55 -522 -60 -43 -17 -95 -70
-113 -116 -15 -40 -15 -57 -5 -152 6 -60 29 -281 51 -492 45 -430 50 -452 121
-497 49 -31 102 -38 201 -27 l78 9 6 -31 c5 -29 16 -35 211 -122 l206 -92 -7
72 c-19 209 -20 217 -4 217 15 0 872 88 1123 115 154 17 2963 307 3195 330 80
8 208 22 285 30 77 8 183 20 235 25 137 15 1160 120 1167 120 11 0 -7 30 -70
116 l-64 89 -22 220 c-13 121 -29 231 -36 246 -9 17 -12 44 -8 80 7 68 -23
361 -41 403 -28 64 -105 116 -173 116 -36 0 -282 -25 -1106 -111 -169 -18
-310 -30 -313 -27 -3 3 34 77 82 164 169 308 197 390 210 628 10 188 -8 353
-75 676 -20 97 -37 229 -51 395 -48 578 -89 814 -167 970 -60 118 -140 218
-223 279 l-56 41 67 240 c257 925 344 1233 374 1325 71 213 93 405 61 524 -32
117 -115 186 -222 186 -74 0 -132 -28 -200 -94 l-51 -51 -74 76 c-105 108
-232 168 -463 218 -221 48 -621 70 -939 51z m443 -90 c354 -24 605 -81 780
-178 75 -41 173 -130 190 -172 l12 -28 59 47 c73 59 162 91 255 91 55 0 69 -4
89 -24 33 -33 45 -86 45 -197 0 -123 -7 -158 -85 -424 -74 -253 -318 -1094
-460 -1585 -53 -184 -138 -479 -190 -655 -51 -176 -141 -486 -200 -690 -218
-757 -327 -1130 -331 -1134 -2 -2 -12 0 -23 5 -19 9 -12 37 179 694 49 168
219 769 240 845 10 39 42 151 70 250 73 257 275 984 322 1155 21 80 57 213 79
295 23 83 52 191 65 240 71 263 216 847 238 963 22 114 24 138 14 160 -34 71
-128 64 -305 -24 -111 -54 -115 -55 -131 -37 -91 100 -390 286 -515 319 -83
22 -268 42 -452 49 -171 7 -600 -7 -794 -25 -58 -5 -106 -8 -108 -6 -11 11
307 54 483 65 186 12 310 12 474 1z m-600 -679 c184 -92 419 -219 461 -248 68
-47 82 -71 17 -29 -70 45 -183 101 -220 110 -16 3 -70 32 -120 63 -132 80
-190 98 -313 97 -91 0 -109 -3 -200 -38 -141 -54 -377 -176 -499 -257 -85 -57
-40 -11 69 70 152 114 281 182 445 236 165 55 245 54 360 -4z m-544 -786 c-8
-21 13 -74 34 -85 11 -6 76 -22 146 -35 210 -42 260 -72 299 -178 15 -39 50
-114 77 -166 50 -93 50 -95 46 -170 -8 -140 -43 -174 -182 -176 -91 -1 -134
-14 -178 -52 -14 -13 -22 -11 -66 11 -49 25 -82 58 -82 82 0 7 34 13 93 17
182 12 186 14 248 79 87 91 88 94 55 193 -48 149 -115 190 -202 126 -21 -16
-70 -61 -109 -100 -65 -67 -72 -71 -113 -71 -54 0 -97 -24 -113 -63 -19 -45
-37 -57 -84 -57 -41 0 -75 -18 -75 -41 0 -17 -28 -9 -60 17 -46 39 -143 67
-205 58 -74 -10 -85 -18 -85 -65 0 -36 6 -47 45 -83 43 -40 66 -80 64 -114 0
-9 -6 3 -14 27 -9 30 -30 59 -66 91 -49 46 -51 50 -44 87 15 81 9 136 -24 211
-42 95 -42 166 0 188 l27 14 11 -50 c21 -99 97 -215 170 -261 64 -41 70 -36
21 17 -57 62 -104 173 -124 295 l-6 35 137 68 c166 81 345 164 357 165 4 1 6
-6 2 -14z m1057 -308 c26 -52 51 -118 57 -147 10 -55 14 -348 4 -338 -3 3 -14
70 -25 149 -18 128 -32 190 -85 384 -16 59 -16 58 -6 51 5 -3 30 -47 55 -99z
m-93 -367 c-10 -74 -26 -213 -36 -307 -10 -95 -21 -173 -24 -173 -18 0 -35 59
-34 119 1 71 97 512 109 500 1 -2 -5 -65 -15 -139z m-924 -66 c43 -84 87 -129
168 -168 41 -20 58 -37 79 -73 15 -27 27 -42 27 -35 0 19 -29 84 -46 103 -15
16 -13 19 16 34 20 10 73 19 145 24 79 5 121 12 139 24 25 17 26 17 26 -2 0
-20 -48 -41 -96 -41 -35 0 -121 -29 -146 -50 l-23 -19 51 6 c29 3 75 0 103 -7
58 -14 76 -37 87 -111 l6 -44 -30 45 c-29 45 -92 110 -92 97 0 -4 7 -18 15
-31 15 -22 14 -24 -8 -38 -21 -15 -25 -14 -50 8 -16 13 -32 24 -38 24 -14 0
-11 -21 6 -40 13 -15 13 -21 2 -43 l-14 -27 -23 25 c-29 31 -47 33 -27 2 13
-21 13 -25 -5 -47 l-20 -25 -22 28 c-30 37 -48 36 -35 -3 9 -25 7 -34 -10 -55
l-20 -26 -20 40 c-12 22 -25 42 -31 46 -13 8 -13 -26 0 -59 7 -20 6 -26 -4
-26 -7 0 -19 -7 -26 -15 -20 -24 -26 -18 -40 30 -7 25 -17 45 -21 45 -5 0 -9
-20 -9 -45 0 -25 -2 -45 -4 -45 -2 0 -11 -3 -19 -6 -10 -3 -19 8 -31 35 -19
49 -36 53 -36 10 0 -17 -7 -37 -15 -46 -14 -13 -16 -11 -21 16 -9 43 -20 47
-38 14 -15 -27 -15 -26 -16 44 0 39 -2 80 -5 90 -3 10 -1 9 6 -5 18 -34 58
-40 81 -12 10 12 18 29 18 37 0 12 3 12 22 -1 43 -30 108 -11 108 30 0 24 -29
73 -50 84 -11 6 -45 42 -75 80 -52 65 -59 70 -95 70 -29 0 -43 -6 -56 -22
l-16 -23 6 25 c3 14 11 49 17 78 12 51 13 52 49 52 22 0 48 8 61 19 34 27 49
15 95 -75z m-249 -165 c11 -27 10 -30 -5 -24 -10 4 -38 -5 -68 -21 -40 -21
-56 -25 -80 -19 l-29 8 36 7 c36 6 84 35 109 65 18 22 24 19 37 -16z m-223 -5
c3 -8 2 -12 -4 -9 -6 3 -10 10 -10 16 0 14 7 11 14 -7z m256 -80 c6 -14 10
-33 10 -44 0 -24 -61 -52 -125 -58 -57 -5 -80 12 -91 64 l-6 29 49 -3 c38 -3
53 1 72 17 35 30 79 28 91 -5z m682 -76 c7 -21 5 -33 -9 -52 -24 -33 -28 -32
-40 7 -19 63 29 107 49 45z m1667 -23 c47 -23 131 -106 131 -129 0 -6 -14 -17
-31 -23 -29 -11 -33 -10 -59 21 -23 26 -68 61 -118 92 -8 5 10 64 19 64 5 0
31 -11 58 -25z m-1728 -35 c11 -37 10 -41 -12 -59 l-24 -19 -12 30 c-18 42
-16 75 4 87 24 13 30 7 44 -39z m-72 -31 c17 -49 13 -66 -18 -88 l-29 -21 -11
45 c-13 53 -1 95 28 95 12 0 23 -11 30 -31z m171 -22 c0 -7 -11 -20 -25 -30
-33 -24 -44 -3 -15 28 23 24 40 25 40 2z m-262 -10 c6 -7 14 -31 18 -54 6 -38
5 -41 -25 -51 -35 -12 -37 -11 -46 40 -11 58 24 101 53 65z m192 -39 c0 -14
-30 -48 -42 -48 -13 0 -9 22 9 42 18 21 33 23 33 6z m-5 -68 c-76 -77 -75 -89
4 -36 41 28 49 31 40 14 -6 -12 -29 -40 -51 -64 -22 -24 -36 -44 -31 -44 17 0
58 33 136 109 69 67 76 72 67 44 -33 -94 -273 -317 -415 -384 -96 -46 -139
-36 -175 42 -13 27 -36 62 -52 78 l-29 30 48 5 c62 8 173 41 243 74 83 38 149
84 215 151 33 33 62 58 64 55 3 -2 -26 -36 -64 -74z m-266 33 c6 -21 11 -43
11 -49 0 -10 -70 -37 -78 -30 -2 3 -6 23 -9 45 -6 47 8 71 43 71 18 0 25 -8
33 -37z m-199 -53 c0 -46 -2 -50 -25 -50 -42 0 -61 66 -29 101 13 14 21 16 35
8 15 -7 19 -21 19 -59z m94 48 c3 -13 6 -37 6 -55 0 -27 -4 -32 -31 -38 -37
-8 -49 4 -49 54 0 54 61 86 74 39z m-191 -27 c11 -45 4 -75 -10 -41 -20 49
-25 82 -11 78 6 -2 16 -19 21 -37z m501 -8 c-5 -9 -19 -22 -31 -30 -18 -12
-21 -12 -27 2 -8 23 41 72 57 56 8 -8 8 -16 1 -28z m1959 -47 c15 -43 15 -44
-9 -55 -34 -15 -33 -16 -50 25 -14 35 -14 38 7 60 27 29 33 25 52 -30z m-2030
5 c5 -21 -45 -56 -69 -47 -23 9 -16 34 14 50 36 20 49 20 55 -3z m-97 -66 c-4
-12 -84 -41 -91 -33 -1 2 -5 12 -9 23 -5 17 2 22 42 35 38 12 49 13 55 2 5 -7
6 -19 3 -27z m619 28 c-7 -19 -25 -104 -45 -212 -16 -87 -64 -183 -120 -238
-47 -47 -94 -77 -112 -71 -14 5 91 128 136 158 53 37 69 78 75 201 5 91 10
111 31 142 26 38 47 50 35 20z m-747 -50 c-4 -20 -53 -47 -68 -38 -21 13 -10
44 18 48 51 8 53 7 50 -10z m-178 -15 c0 -19 -2 -20 -10 -8 -13 19 -13 30 0
30 6 0 10 -10 10 -22z m80 -9 c0 -16 -5 -20 -27 -17 -17 2 -29 10 -31 21 -3
13 3 17 27 17 25 0 31 -4 31 -21z m2390 -38 c0 -5 7 -67 14 -138 8 -70 20
-222 26 -338 14 -274 29 -378 102 -745 57 -283 61 -316 64 -460 3 -168 2 -171
-16 -35 -14 107 -63 312 -132 560 -27 99 -54 203 -59 230 -6 28 -14 208 -18
400 -5 193 -14 386 -21 429 -12 74 -12 80 5 93 22 15 35 17 35 4z m-2820 -60
c0 -5 -13 -14 -29 -21 -98 -40 -218 -219 -303 -450 -45 -124 -40 -82 9 75 45
142 91 229 157 297 83 84 166 134 166 99z m1594 -313 c-4 -7 -49 -60 -99 -118
-123 -142 -182 -227 -197 -284 -11 -40 -10 -48 2 -56 21 -13 37 -8 208 75 83
41 152 72 152 68 0 -6 -123 -147 -165 -188 -11 -11 -35 -38 -54 -60 -19 -22
-71 -80 -115 -128 -45 -49 -82 -92 -84 -96 -1 -4 15 -16 37 -26 57 -25 115
-16 198 31 113 64 108 58 -57 -81 -133 -112 -180 -148 -186 -142 -3 3 12 32
34 65 l41 59 -72 -5 c-90 -5 -147 14 -147 51 0 35 48 96 129 163 38 33 70 62
70 65 1 3 -25 -3 -56 -13 -65 -22 -117 -18 -133 12 -32 59 11 172 105 276 l55
62 -33 -8 c-48 -11 -149 -47 -211 -74 -65 -29 -175 -102 -182 -121 -3 -7 -12
-16 -20 -19 -19 -7 -13 3 48 81 94 119 196 184 423 268 126 46 253 106 285
133 29 25 34 27 24 10z m-1580 -150 c8 -13 6 -31 -8 -70 -44 -126 -198 -458
-212 -458 -3 0 -3 8 1 18 29 68 77 226 89 290 16 89 12 137 -16 156 -19 13
-18 14 11 35 38 28 92 51 110 48 8 -1 19 -10 25 -19z m1 -448 c9 -15 -13 -113
-47 -208 -29 -81 -48 -98 -48 -43 0 43 -34 79 -78 83 l-37 3 65 70 c87 95 128
122 145 95z m67 -255 c-4 -44 -43 -165 -53 -165 -5 0 -9 16 -9 35 0 19 -8 53
-17 76 l-16 42 29 24 c40 33 70 27 66 -12z m-342 -141 c6 -6 -13 -9 -53 -6
-52 3 -66 1 -89 -18 -46 -36 -36 -58 37 -86 15 -5 9 -9 -28 -15 -52 -8 -77
-23 -77 -45 0 -8 32 -48 71 -89 64 -67 68 -74 40 -64 -46 16 -97 3 -142 -38
-22 -20 -39 -29 -39 -22 0 30 40 178 70 261 42 115 71 142 147 136 30 -3 58
-9 63 -14z m2596 -280 c63 -25 304 -148 304 -154 0 -3 -48 -19 -106 -34 -124
-32 -134 -29 -134 44 0 54 -20 85 -83 131 -45 32 -38 37 19 13z m-2685 -249
c35 -8 39 -24 4 -17 -80 15 -164 -39 -235 -149 -73 -114 -123 -236 -155 -379
-7 -30 -13 -46 -14 -35 -2 36 37 177 84 310 90 253 151 306 316 270z m1973
-107 c30 -46 -22 -208 -67 -208 -5 0 -24 7 -43 16 -30 15 -45 15 -112 5 -113
-18 -122 -21 -122 -41 0 -19 -28 -28 -68 -22 -22 3 -23 7 -18 40 4 20 6 60 6
89 -1 48 1 53 24 59 14 3 30 3 35 -1 20 -11 234 37 270 62 43 29 76 29 95 1z
m130 -71 c37 -46 121 -91 188 -102 48 -8 66 -36 44 -70 -9 -14 -16 -36 -16
-50 0 -53 -96 -57 -107 -4 -7 35 -61 59 -137 59 -34 0 -58 5 -65 14 -13 15
-18 92 -7 103 3 3 24 -1 46 -10 40 -15 40 -15 29 6 -6 12 -23 32 -37 44 -22
18 -24 24 -13 37 21 25 37 19 75 -27z m-1314 -6 c0 -4 -37 -25 -82 -46 -73
-33 -94 -39 -178 -42 -52 -3 -159 0 -237 5 -79 6 -158 7 -178 2 -71 -16 -138
-104 -241 -315 -35 -71 -64 -124 -64 -118 0 18 55 153 78 193 11 19 35 69 53
110 18 41 53 106 77 144 42 66 44 68 76 62 47 -9 476 -7 566 3 109 12 130 12
130 2z m1985 -141 c20 -30 55 -176 55 -231 0 -57 -16 -119 -30 -119 -5 0 -12
15 -15 33 -15 68 -57 128 -134 191 -20 16 -28 26 -18 23 47 -17 64 -18 77 -3
17 21 7 92 -20 148 -11 23 -20 46 -20 52 0 10 87 -67 105 -94z m-1245 38 c-1
-13 -7 -34 -15 -48 -17 -29 -20 -96 -5 -105 16 -10 12 -51 -7 -67 -31 -27 -65
-41 -158 -64 -111 -29 -126 -29 -55 -1 64 24 47 34 -23 13 -26 -8 -47 -11 -47
-7 0 4 48 22 106 39 118 37 134 51 29 27 -180 -42 -212 -36 -82 15 45 18 87
37 92 42 6 6 5 7 -5 4 -8 -3 -53 -17 -100 -31 l-84 -26 -18 23 c-10 13 -18 26
-18 29 0 3 39 23 88 43 48 21 130 60 182 87 52 27 101 49 108 49 6 0 12 -10
12 -22z m424 -74 c3 -8 -1 -26 -10 -39 -9 -13 -13 -29 -9 -35 4 -6 4 -22 1
-35 -6 -23 -6 -23 -125 -18 -110 5 -122 4 -166 -17 -55 -27 -75 -21 -87 27
-16 63 35 115 83 85 14 -9 44 -6 130 13 62 14 115 27 117 30 12 12 60 4 66
-11z m79 -25 c17 -23 151 -96 212 -114 49 -15 56 -41 20 -75 -17 -16 -25 -34
-25 -56 0 -24 -5 -33 -21 -37 -15 -4 -23 0 -26 13 -3 11 -36 41 -73 69 -53 38
-76 49 -103 48 -19 0 -42 5 -51 12 -18 15 -21 47 -6 56 6 3 10 20 10 37 0 29
23 68 41 68 4 0 14 -9 22 -21z m355 -71 c22 -83 28 -187 12 -238 -6 -23 -8
-22 -15 15 -4 22 -20 63 -35 90 -35 65 -47 115 -27 115 18 0 27 21 27 66 0 57
14 39 38 -48z m-712 -109 c16 -18 27 -20 69 -16 27 3 59 8 70 11 32 10 51 -8
38 -36 -7 -13 -15 -38 -18 -55 -8 -43 -18 -47 -56 -27 -24 12 -45 14 -84 9
-61 -7 -80 5 -91 61 -5 26 -2 40 11 54 23 25 37 25 61 -1z m256 -28 c19 -27
176 -111 208 -111 15 0 38 -8 51 -18 22 -19 22 -19 3 -45 -15 -20 -30 -26 -69
-29 -45 -4 -56 0 -110 36 -44 30 -73 42 -110 46 l-50 5 3 40 c6 84 42 122 74
76z m-382 -9 c19 -15 21 -22 11 -40 -18 -34 -13 -72 14 -104 31 -36 31 -43 1
-72 -19 -20 -38 -25 -102 -31 -43 -3 -115 -11 -159 -16 -106 -12 -115 -12
-115 6 0 19 8 22 84 30 36 4 54 10 46 15 -9 5 -3 10 19 15 17 3 34 11 37 17 4
6 -1 8 -12 5 -11 -3 -50 -8 -89 -11 -57 -4 -63 -4 -32 4 119 31 116 30 40 26
l-73 -3 0 58 c0 67 -17 58 163 94 141 29 140 29 167 7z m130 -123 c25 -12 65
-22 89 -23 52 -1 71 -21 54 -59 -10 -22 -19 -25 -102 -31 -51 -4 -96 -4 -102
0 -6 3 -9 18 -6 33 3 14 1 34 -4 44 -12 21 -3 57 14 57 7 0 32 -10 57 -21z
m214 -65 c25 -24 19 -34 -19 -34 -29 0 -33 3 -28 18 5 14 21 31 30 32 1 0 9
-7 17 -16z m2733 -116 c7 -46 8 -86 5 -90 -6 -6 -269 -38 -317 -38 -11 0 -62
-5 -113 -12 -55 -6 -97 -7 -102 -2 -4 5 -10 45 -12 89 l-3 80 92 9 c78 7 96 6
117 -7 28 -19 44 -10 18 9 -15 12 -15 13 8 14 14 1 77 7 140 14 63 8 124 14
136 15 18 1 22 -8 31 -81z m-577 4 c0 -10 16 -168 35 -352 19 -183 32 -336 29
-339 -3 -3 -13 4 -21 17 -9 12 -51 70 -93 127 -83 111 -83 111 -100 265 -5 47
-14 127 -20 179 -6 51 -8 96 -5 99 4 4 32 10 63 13 104 11 112 10 112 -9z
m-405 -111 c30 -43 62 -84 70 -91 8 -7 15 -17 15 -23 0 -5 8 -16 18 -23 22
-16 11 -28 -51 -48 -60 -20 -93 -20 -101 -1 -3 9 0 15 10 15 8 0 12 5 9 10 -3
6 -15 10 -25 10 -13 0 -46 35 -95 100 -41 54 -75 103 -75 109 0 10 40 16 127
19 42 2 43 2 98 -77z m-439 -2 c29 -11 72 -38 97 -60 50 -44 99 -122 91 -144
-3 -8 2 -22 11 -31 9 -9 14 -25 12 -35 -3 -11 -1 -22 4 -25 13 -8 11 -42 -3
-47 -10 -3 -8 -9 4 -24 16 -17 17 -27 7 -78 -15 -84 -59 -164 -119 -218 -50
-45 -147 -91 -179 -85 -18 4 -29 58 -11 58 6 0 8 10 4 24 -3 14 -2 31 2 38 5
7 9 16 9 20 0 4 15 18 32 31 60 44 94 111 88 174 -17 169 -14 157 -61 210 -35
41 -54 54 -94 64 -40 10 -50 17 -54 38 -5 24 -9 95 -7 115 1 13 109 -3 167
-25z m-192 -16 c13 -79 8 -103 -21 -114 -101 -38 -149 -178 -109 -314 22 -75
64 -128 117 -149 49 -20 73 -42 66 -60 -3 -7 0 -19 6 -25 8 -8 8 -11 0 -11 -6
0 -13 -10 -17 -22 -5 -20 -8 -21 -17 -8 -8 12 -9 8 -4 -14 6 -27 5 -28 -22
-21 -15 3 -29 10 -31 14 -1 5 -13 6 -26 4 -33 -7 -96 29 -151 84 -54 55 -94
131 -75 143 8 5 5 9 -9 13 -21 5 -30 37 -10 37 6 0 3 8 -6 17 -28 27 -17 191
16 263 48 103 171 195 265 199 17 1 23 -7 28 -36z m466 -44 c47 -63 51 -73 41
-95 -14 -32 -14 -34 3 -34 8 0 16 5 18 12 3 8 13 4 29 -10 20 -19 21 -24 9
-32 -12 -8 -11 -11 7 -16 30 -8 37 -39 63 -263 14 -132 17 -187 9 -191 -11 -7
-160 -22 -165 -17 -3 3 -44 381 -44 408 0 12 12 25 33 34 l32 15 -37 -5 c-35
-6 -38 -4 -38 19 0 19 4 24 16 19 9 -3 20 0 25 8 14 23 10 30 -11 19 -15 -8
-21 -7 -28 7 -10 19 -27 193 -19 193 2 0 28 -32 57 -71z m1136 23 c-19 -36
-46 -59 -76 -64 l-25 -5 25 -10 c22 -10 23 -12 8 -18 -10 -4 -16 -11 -13 -15
3 -4 -19 -41 -48 -82 -28 -41 -70 -100 -91 -131 -21 -32 -43 -60 -47 -63 -14
-8 -190 -26 -197 -20 -5 6 158 254 184 281 8 7 14 17 14 21 0 4 16 31 35 60
l35 52 68 7 c37 3 74 8 82 9 8 2 25 4 38 5 21 1 22 0 8 -27z m-1977 -199 c12
-120 29 -280 37 -356 9 -76 13 -144 11 -151 -3 -8 0 -19 6 -25 9 -9 9 -14 -1
-20 -15 -9 -164 -23 -171 -16 -2 2 -5 21 -7 42 -2 21 -6 68 -10 106 -6 64 -6
67 15 67 18 0 20 2 9 14 -9 10 -17 11 -25 4 -10 -8 -13 -5 -12 13 1 13 -8 103
-20 200 -11 96 -22 209 -23 250 l-3 74 50 6 c28 3 66 7 86 7 l36 2 22 -217z
m-619 -58 c12 -119 20 -224 17 -235 -3 -11 -2 -22 3 -25 4 -2 13 -61 20 -130
9 -100 9 -129 0 -141 -11 -12 -10 -13 4 -8 16 6 23 -10 9 -19 -5 -3 -45 -8
-90 -12 -65 -5 -83 -4 -85 7 -21 184 -22 208 -4 208 10 0 15 4 11 10 -3 5 -11
7 -18 4 -12 -4 -27 103 -64 473 l-6 61 44 6 c24 3 55 7 69 10 72 10 65 28 90
-209z m-235 148 c3 -27 7 -58 9 -71 4 -29 -15 -37 -109 -46 -38 -3 -99 -9
-135 -12 -114 -11 -113 -11 -121 16 -4 14 -7 46 -8 73 -1 42 1 47 22 48 12 1
31 3 42 4 11 2 54 6 95 10 61 5 154 17 192 24 4 0 9 -20 13 -46z m-391 -41 c3
-20 8 -64 11 -97 3 -33 9 -94 14 -135 9 -84 5 -110 -15 -110 -8 0 -14 -5 -14
-11 0 -6 8 -8 19 -4 16 5 21 0 25 -27 12 -72 35 -332 30 -340 -9 -15 -94 -9
-94 6 0 8 7 16 15 20 22 8 18 24 -7 28 -13 2 -22 9 -20 16 1 6 -5 12 -13 12
-19 0 -19 -29 0 -36 8 -4 15 -10 15 -15 0 -4 -7 -6 -16 -2 -12 4 -14 0 -8 -21
7 -29 -2 -32 -30 -11 -18 14 -35 121 -51 314 -2 36 -8 92 -11 124 -5 43 -4 57
6 57 9 0 8 5 -3 18 -20 22 -23 39 -4 24 7 -5 21 -6 32 -1 17 6 17 8 3 8 -10 1
-18 5 -18 11 0 5 -7 7 -15 4 -12 -5 -15 2 -15 29 0 20 5 39 10 42 14 9 12 21
-4 38 -8 8 -18 31 -22 52 l-7 38 42 -6 c22 -3 41 -1 41 3 0 8 77 18 92 13 3
-2 9 -20 12 -41z m-204 6 c0 -16 -190 -770 -196 -780 -3 -5 -19 -8 -36 -8 -29
0 -30 2 -24 30 3 17 2 30 -3 30 -4 0 -13 55 -20 123 l-11 122 63 240 62 240
35 6 c65 12 130 10 130 -3z m2609 -24 c34 -39 312 -415 317 -429 6 -15 -153
-33 -166 -19 -15 17 -320 425 -320 428 0 2 19 7 43 10 23 4 53 13 67 21 33 19
33 19 59 -11z m-3038 -241 l110 -228 15 -125 c20 -181 20 -180 -16 -180 -30 0
-33 4 -180 308 -83 169 -163 334 -179 367 -16 33 -27 62 -24 65 4 4 83 15 141
19 21 1 35 -24 133 -226z m-492 144 c60 -22 131 -81 169 -142 20 -32 23 -44
15 -66 -9 -23 -8 -26 7 -22 20 5 33 -30 17 -46 -6 -6 -4 -15 7 -26 19 -20 20
-32 4 -38 -10 -3 -10 -7 1 -20 18 -23 10 -95 -19 -172 -29 -75 -107 -156 -185
-190 -74 -33 -101 -33 -108 1 -2 14 0 28 7 30 6 2 11 24 10 49 0 30 4 45 12
45 21 0 104 100 104 125 0 13 4 26 8 29 5 3 4 38 -1 78 -5 40 -10 82 -11 94
-5 43 -63 110 -115 133 -27 11 -56 21 -64 21 -20 0 -34 130 -15 141 18 11 93
0 157 -24z m-187 -37 c8 -63 3 -90 -18 -90 -27 0 -100 -78 -113 -121 -45 -149
10 -307 119 -346 27 -10 47 -20 44 -24 -2 -4 3 -9 11 -13 18 -7 20 -36 3 -36
-9 0 -8 -4 2 -11 11 -8 12 -12 3 -16 -7 -2 -13 -11 -13 -18 0 -7 -6 -16 -12
-18 -8 -3 -6 -6 4 -6 9 -1 22 7 27 17 9 15 10 14 11 -8 0 -23 -4 -25 -45 -27
-25 -1 -47 3 -50 8 -4 5 -21 9 -39 9 -63 0 -178 97 -217 184 -17 38 -17 41 -1
48 13 5 12 7 -7 7 -19 1 -23 5 -19 26 3 13 0 26 -6 28 -7 2 -11 37 -10 98 2
174 72 283 223 346 82 34 95 29 103 -37z m-380 -140 c9 -85 19 -189 22 -230 2
-41 7 -82 9 -90 3 -8 10 -66 16 -128 8 -82 8 -120 0 -134 -8 -15 -8 -19 0 -14
6 4 11 0 11 -8 0 -11 -9 -16 -27 -17 -16 0 -55 -2 -88 -5 -55 -5 -61 -4 -62
14 -1 10 -6 54 -12 96 -15 106 -15 106 17 106 23 1 25 2 9 11 -9 5 -22 7 -27
4 -6 -3 -11 2 -12 12 0 10 -2 29 -4 43 -23 200 -51 476 -48 479 5 6 124 19
154 17 25 -1 25 -3 42 -156z m-519 -65 c19 -175 17 -215 -8 -215 -8 0 -15 -5
-15 -10 0 -6 10 -8 23 -5 23 6 24 5 37 -137 8 -79 15 -163 15 -188 l0 -45 -42
-2 c-47 -3 -64 11 -33 27 27 15 25 30 -4 30 -28 0 -43 16 -24 23 8 4 7 6 -4 6
-24 1 -31 -15 -13 -32 19 -20 19 -28 0 -21 -17 7 -20 -7 -4 -23 6 -6 7 -13 1
-17 -14 -8 -52 32 -53 57 0 12 -2 31 -4 42 -1 11 -10 92 -19 180 -9 88 -19
175 -22 193 -4 23 -2 32 7 32 10 0 10 3 1 12 -7 7 -12 19 -11 28 0 8 3 10 5 4
3 -7 13 -10 24 -7 15 4 16 8 7 18 -6 6 -19 10 -29 7 -14 -3 -18 2 -18 22 0 19
4 25 13 20 9 -6 9 -4 -1 8 -11 14 -10 18 5 27 17 10 17 12 -4 30 -16 13 -23
30 -23 56 0 35 1 36 33 34 17 -1 39 1 47 4 18 7 71 15 85 12 6 -1 18 -78 28
-170z m2611 74 c8 -66 2 -78 -39 -80 -11 0 -78 -6 -150 -13 -71 -7 -134 -10
-139 -5 -14 12 -17 130 -3 128 7 -1 19 1 27 4 21 9 164 24 236 26 l61 1 7 -61z
m2894 -22 c6 -45 7 -85 3 -90 -4 -4 -50 -10 -102 -14 -80 -5 -97 -3 -111 11
-9 9 -19 12 -22 7 -4 -5 0 -11 6 -14 7 -2 10 -7 7 -11 -7 -8 -298 -40 -305
-34 -5 6 -17 99 -18 143 -1 23 4 30 19 32 11 1 117 13 235 26 118 13 229 24
246 25 l31 1 11 -82z m-5824 53 c24 -11 55 -33 70 -50 69 -83 57 -249 -23
-296 l-30 -18 38 -32 c43 -37 74 -110 52 -124 -11 -6 -9 -10 7 -19 18 -9 28
-34 37 -91 0 -3 6 -15 13 -27 7 -13 10 -23 6 -23 -3 0 4 -9 17 -19 13 -11 22
-22 19 -24 -3 -3 -41 -8 -84 -11 -44 -4 -82 -9 -85 -11 -14 -15 -45 40 -72
128 -42 133 -49 140 -153 136 l-81 -4 -7 64 c-4 35 -5 68 -2 73 3 4 22 8 43 8
52 0 134 26 156 49 20 23 23 88 5 121 -17 32 -53 41 -145 34 l-83 -7 -7 45
c-4 24 -5 57 -3 74 3 27 6 29 58 35 125 13 210 10 254 -11z m-340 -37 c3 -21
11 -87 16 -148 6 -60 22 -215 36 -344 14 -129 21 -237 17 -242 -4 -4 -45 -11
-90 -14 l-82 -7 -5 33 c-12 76 -76 732 -72 737 5 5 101 18 148 21 23 1 27 -4
32 -36z m989 -231 c5 -35 6 -66 3 -69 -10 -10 -261 -29 -273 -21 -6 5 -13 36
-15 68 l-3 59 37 6 c72 13 174 23 208 21 l35 -1 8 -63z m2917 23 c0 -9 9 -15
21 -15 17 0 19 -3 10 -14 -8 -10 -8 -16 3 -25 7 -6 13 -26 12 -44 -1 -27 -6
-33 -28 -35 -26 -3 -27 -2 -18 28 5 17 5 41 1 52 -7 21 -8 20 -15 -6 -4 -15
-4 -36 -1 -46 4 -13 -1 -22 -15 -30 -13 -7 -20 -7 -20 0 0 5 -5 10 -11 10 -5
0 -8 -4 -5 -8 3 -5 -51 -15 -120 -22 -144 -15 -143 -15 -145 63 -1 26 -2 53
-3 60 -1 7 13 13 34 14 19 1 55 4 80 7 54 8 166 21 198 24 14 1 22 -4 22 -13z
m656 -45 c0 -13 -7 -20 -18 -20 -16 0 -16 3 -6 20 7 11 15 20 18 20 3 0 6 -9
6 -20z m-1230 -30 c1 -14 4 -46 8 -72 l7 -46 -63 -7 c-35 -4 -94 -7 -133 -8
-38 -1 -73 -6 -76 -11 -11 -15 -39 2 -39 23 0 10 -7 32 -15 47 -14 27 -15 27
-15 6 0 -13 7 -36 15 -52 15 -30 15 -30 -13 -30 -25 0 -30 5 -36 31 -3 17 -3
35 0 40 3 6 0 16 -6 24 -10 12 -9 15 5 15 9 0 19 9 22 19 5 19 51 26 237 36
32 2 61 6 64 10 14 13 37 -2 38 -25z"/>
<path d="M6960 2604 c0 -16 9 -18 28 -5 10 6 9 10 -7 14 -14 3 -21 0 -21 -9z"/>
<path d="M6658 2503 c7 -3 16 -2 19 1 4 3 -2 6 -13 5 -11 0 -14 -3 -6 -6z"/>
<path d="M6604 2489 c-9 -15 8 -28 28 -20 17 6 16 7 -2 18 -13 9 -21 9 -26 2z"/>
<path d="M6566 2425 c4 -8 15 -15 25 -15 10 0 19 7 19 15 0 9 -9 15 -25 15
-18 0 -23 -4 -19 -15z"/>
<path d="M6072 2349 c2 -8 20 -15 39 -17 40 -4 30 13 -15 24 -22 5 -28 4 -24
-7z"/>
<path d="M6070 2249 c0 -5 5 -7 10 -4 6 3 10 8 10 11 0 2 -4 4 -10 4 -5 0 -10
-5 -10 -11z"/>
<path d="M6825 2500 c-3 -5 3 -10 14 -10 12 0 21 5 21 10 0 6 -6 10 -14 10 -8
0 -18 -4 -21 -10z"/>
<path d="M7751 2651 c-9 -6 -10 -11 -2 -15 13 -8 31 1 31 15 0 11 -11 11 -29
0z"/>
<path d="M5850 2640 c0 -5 5 -10 11 -10 5 0 7 5 4 10 -3 6 -8 10 -11 10 -2 0
-4 -4 -4 -10z"/>
<path d="M5930 2290 c0 -5 5 -10 11 -10 5 0 7 5 4 10 -3 6 -8 10 -11 10 -2 0
-4 -4 -4 -10z"/>
<path d="M5840 2200 c0 -5 5 -10 10 -10 6 0 10 5 10 10 0 6 -4 10 -10 10 -5 0
-10 -4 -10 -10z"/>
<path d="M5230 2569 c0 -5 5 -7 10 -4 6 3 10 8 10 11 0 2 -4 4 -10 4 -5 0 -10
-5 -10 -11z"/>
<path d="M5215 2140 c-3 -5 1 -10 9 -10 9 0 16 5 16 10 0 6 -4 10 -9 10 -6 0
-13 -4 -16 -10z"/>
<path d="M4537 2544 c-11 -11 5 -34 24 -34 12 0 19 7 19 20 0 19 -28 28 -43
14z"/>
<path d="M4602 2339 c-17 -27 -12 -31 12 -13 13 9 16 18 10 24 -6 6 -14 2 -22
-11z"/>
<path d="M4581 2291 c-10 -6 -10 -10 -1 -16 13 -8 24 -1 19 14 -3 6 -10 7 -18
2z"/>
<path d="M4621 2176 c2 -2 14 -9 26 -15 19 -10 22 -9 17 4 -4 8 -15 15 -27 15
-11 0 -18 -2 -16 -4z"/>
<path d="M4315 2269 c-11 -17 1 -21 15 -4 8 9 8 15 2 15 -6 0 -14 -5 -17 -11z"/>
<path d="M4050 2070 c0 -5 5 -10 10 -10 6 0 10 5 10 10 0 6 -4 10 -10 10 -5 0
-10 -4 -10 -10z"/>
<path d="M3670 2175 c0 -8 9 -15 20 -15 24 0 27 15 4 24 -22 9 -24 8 -24 -9z"/>
<path d="M3630 2128 c0 -13 24 -20 57 -16 25 3 24 4 -15 14 -23 6 -42 7 -42 2z"/>
<path d="M3145 2049 c-11 -16 6 -23 50 -20 17 1 15 4 -9 16 -34 18 -33 18 -41
4z"/>
<path d="M3205 1930 c3 -5 8 -10 11 -10 2 0 4 5 4 10 0 6 -5 10 -11 10 -5 0
-7 -4 -4 -10z"/>
<path d="M2998 1983 c7 -3 16 -2 19 1 4 3 -2 6 -13 5 -11 0 -14 -3 -6 -6z"/>
<path d="M2910 1910 c0 -5 5 -10 10 -10 6 0 10 5 10 10 0 6 -4 10 -10 10 -5 0
-10 -4 -10 -10z"/>
<path d="M2313 2313 c-10 -3 -10 -8 1 -19 21 -21 46 -17 46 6 0 20 -19 25 -47
13z"/>
<path d="M2376 2114 c-4 -9 -4 -19 -2 -21 8 -8 26 8 26 23 0 19 -16 18 -24 -2z"/>
<path d="M2350 2050 c0 -5 7 -10 15 -10 8 0 15 5 15 10 0 6 -7 10 -15 10 -8 0
-15 -4 -15 -10z"/>
<path d="M2390 1946 c0 -2 9 -6 20 -9 11 -3 20 -1 20 4 0 5 -9 9 -20 9 -11 0
-20 -2 -20 -4z"/>
<path d="M2370 1930 c0 -5 5 -10 11 -10 5 0 7 5 4 10 -3 6 -8 10 -11 10 -2 0
-4 -4 -4 -10z"/>
<path d="M5028 2283 c7 -3 16 -2 19 1 4 3 -2 6 -13 5 -11 0 -14 -3 -6 -6z"/>
<path d="M7770 2290 c0 -5 5 -10 11 -10 5 0 7 5 4 10 -3 6 -8 10 -11 10 -2 0
-4 -4 -4 -10z"/>
</g>
</svg>
